<svg width="32px" height="32px" viewBox="0 0 24.00 24.00" fill="none" xmlns="http://www.w3.org/2000/svg">
  <g id="SVGRepo_bgCarrier" stroke-width="0" transform="translate(0,0), scale(1)">
    <path transform="translate(0, 0), scale(1.5)" fill="#ffffff" d="M9.166.33a2.25 2.25 0 00-2.332 0l-5.25 3.182A2.25 2.25 0 00.5 5.436v5.128a2.25 2.25 0 001.084 1.924l5.25 3.182a2.25 2.25 0 002.332 0l5.25-3.182a2.25 2.25 0 001.084-1.924V5.436a2.25 2.25 0 00-1.084-1.924L9.166.33z" stroke-width="0"/>
  </g>
  <g id="SVGRepo_tracerCarrier" stroke-linecap="round" stroke-linejoin="round" stroke="#CCCCCC" stroke-width="0.336"/>
  <g id="SVGRepo_iconCarrier">
    <path opacity="0.15" d="M21 12C21 16.9706 16.9706 21 12 21C7.02944 21 3 16.9706 3 12C3 7.02944 7.02944 3 12 3C16.9706 3 21 7.02944 21 12Z" fill="#000000"/>
    <path d="M12 16H13C13.6667 16 15 15.6 15 14C15 12.4 13.6667 12 13 12H11C10.3333 12 9 11.6 9 10C9 8.4 10.3333 8 11 8H12M12 16H9M12 16V18M15 8H12M12 8V6M21 12C21 16.9706 16.9706 21 12 21C7.02944 21 3 16.9706 3 12C3 7.02944 7.02944 3 12 3C16.9706 3 21 7.02944 21 12Z" stroke="#000000" stroke-width="1.5" stroke-linecap="round" stroke-linejoin="round"/>
  </g>
</svg>
